<?xml version="1.0" standalone="no"?>
<!DOCTYPE svg PUBLIC "-//W3C//DTD SVG 20010904//EN"
 "http://www.w3.org/TR/2001/REC-SVG-20010904/DTD/svg10.dtd">
<svg version="1.0" xmlns="http://www.w3.org/2000/svg"
 width="1280.000000pt" height="1280.000000pt" viewBox="0 0 1280.000000 1280.000000"
 preserveAspectRatio="xMidYMid meet">
<g transform="translate(0.000000,1280.000000) scale(0.100000,-0.100000)"
fill="#000000" stroke="none">
<path d="M8128 12765 c-363 -123 -663 -460 -810 -910 -27 -85 -68 -246 -68
-271 0 -33 -31 -53 -80 -53 -25 1 -62 -6 -82 -15 -44 -19 -58 -15 -80 24 -23
41 -49 39 -153 -11 -78 -36 -87 -44 -110 -89 -13 -27 -33 -51 -42 -54 -10 -3
-112 -10 -228 -16 -867 -42 -1131 -59 -1505 -100 -211 -23 -309 4 -472 132
-37 29 -67 18 -105 -36 -58 -83 -110 -72 -142 28 -28 86 -92 233 -136 312 -43
77 -162 237 -238 320 -150 164 -351 287 -552 339 -222 57 -613 33 -988 -62
-164 -41 -345 -102 -431 -145 -301 -151 -509 -446 -605 -858 -38 -165 -45
-225 -44 -390 2 -303 66 -539 226 -822 234 -414 574 -644 1012 -683 65 -5 202
7 375 35 36 5 133 19 215 31 426 58 617 126 796 285 58 51 76 55 85 17 38
-173 166 -508 226 -592 36 -52 38 -58 38 -132 0 -98 21 -206 70 -367 21 -70
52 -181 68 -247 43 -175 91 -287 181 -420 19 -27 21 -45 21 -190 -1 -164 -7
-204 -50 -335 -17 -49 -22 -88 -22 -160 1 -60 -7 -130 -19 -190 -41 -190 -51
-288 -45 -440 7 -219 31 -308 156 -590 117 -264 171 -367 266 -506 47 -69 105
-169 131 -222 40 -85 57 -109 143 -193 106 -106 107 -108 130 -267 12 -79 12
-85 -7 -104 -26 -25 -119 -48 -203 -48 -58 -1 -214 -19 -280 -34 -215 -47
-352 -95 -544 -194 -214 -109 -550 -355 -562 -410 -9 -47 -19 -55 -100 -82
-138 -46 -201 -87 -237 -153 -24 -46 -23 -31 -46 -677 -12 -322 -7 -682 10
-825 11 -94 19 -133 65 -320 18 -77 43 -183 54 -235 22 -100 38 -328 26 -375
-6 -25 -10 -27 -46 -22 -34 4 -42 1 -68 -29 -17 -19 -35 -34 -40 -34 -18 0
-72 51 -88 82 -18 35 -92 118 -105 118 -15 0 -10 -34 11 -67 11 -18 41 -48 68
-67 26 -19 54 -46 62 -60 13 -25 10 -29 -73 -115 -47 -49 -95 -108 -107 -132
l-21 -44 42 45 c23 25 54 59 69 75 53 56 150 92 150 56 0 -15 -197 -204 -233
-223 -50 -27 -57 -36 -57 -80 0 -81 -89 -175 -187 -198 -75 -17 -98 -29 -156
-80 -58 -51 -77 -86 -77 -140 0 -31 6 -47 26 -67 l26 -26 272 7 c149 3 395 11
546 16 151 5 381 12 510 15 129 3 245 8 257 11 34 6 39 59 15 136 -11 35 -25
105 -31 156 -13 101 -28 166 -59 252 -92 256 -100 270 -147 270 -14 0 -34 9
-44 19 -25 25 -36 195 -27 426 8 234 34 378 102 570 52 146 66 243 66 435 0
181 -11 251 -63 404 -31 89 -31 90 -12 106 11 8 74 26 140 39 116 23 123 23
199 7 380 -76 592 -93 729 -57 399 105 852 243 1028 312 53 22 108 39 122 39
32 0 206 -132 285 -216 67 -72 96 -123 133 -235 23 -68 51 -141 95 -254 36
-89 154 -312 215 -403 118 -176 277 -348 427 -459 82 -60 309 -190 355 -202
320 -85 503 -115 635 -105 74 5 92 3 140 -16 101 -41 165 -53 350 -70 52 -5
133 -14 180 -20 47 -5 175 -14 285 -19 225 -10 308 -28 369 -82 40 -34 56 -84
34 -105 -8 -9 -56 -18 -123 -25 -125 -12 -195 -37 -195 -69 0 -31 30 -29 165
14 28 9 57 16 66 16 26 0 31 -29 8 -48 -34 -28 -107 -127 -135 -182 -42 -84
-21 -80 26 5 48 86 107 151 176 191 61 36 74 24 74 -70 0 -80 -16 -150 -49
-214 -17 -34 -21 -53 -16 -83 9 -52 -18 -76 -129 -113 -55 -18 -98 -39 -115
-57 -44 -43 -51 -136 -13 -166 24 -19 648 -18 720 1 79 21 134 59 204 138 138
159 272 284 363 340 l90 55 3 104 c7 224 -23 290 -228 499 -170 174 -140 160
-306 145 -68 -7 -78 -5 -225 45 -426 145 -625 231 -819 352 -198 123 -291 163
-461 198 -93 20 -122 21 -279 15 -255 -10 -272 -9 -316 13 -89 45 -142 123
-209 307 -160 436 -254 637 -394 845 -133 198 -176 304 -222 544 -37 196 -104
368 -245 626 -61 113 -105 178 -159 239 -69 79 -80 98 -186 330 -140 307 -191
440 -218 561 -12 52 -33 131 -47 175 -14 44 -32 132 -40 195 -8 63 -22 160
-31 215 -20 127 -20 126 9 210 32 89 45 194 53 415 5 148 9 180 25 205 44 69
65 116 105 230 23 66 55 154 71 195 26 68 29 86 28 200 0 69 -4 157 -8 195 -6
50 -3 100 9 175 9 58 19 164 22 235 4 110 2 147 -17 235 -39 187 -28 328 41
512 147 396 220 647 289 999 33 170 66 281 111 372 41 80 53 76 84 -28 34
-109 85 -226 146 -334 195 -340 434 -535 755 -617 209 -53 1010 -85 1220 -49
377 65 635 274 858 696 140 265 202 491 213 779 18 485 -139 955 -418 1255
-132 140 -297 260 -422 305 -34 13 -66 27 -72 32 -5 4 -311 8 -680 7 l-670 -1
-97 -33z m-1436 -1574 c24 -10 50 -27 59 -37 24 -28 42 -81 33 -96 -12 -20
-25 -95 -34 -208 -18 -221 -47 -310 -159 -495 -66 -110 -144 -276 -171 -365
-7 -25 -17 -49 -22 -55 -4 -5 -8 -17 -8 -27 0 -10 -4 -26 -9 -36 -5 -9 -19
-51 -31 -92 -12 -41 -26 -84 -30 -95 -4 -11 -22 -67 -41 -125 -18 -58 -36
-109 -41 -114 -4 -6 -8 -16 -8 -23 0 -7 -18 -50 -39 -95 -73 -153 -87 -204
-140 -513 -6 -33 -13 -76 -16 -95 -4 -19 -15 -54 -25 -77 -14 -31 -18 -54 -13
-91 l6 -50 -70 -69 c-77 -76 -99 -88 -135 -67 -31 18 -59 31 -80 38 -25 7 -51
75 -43 111 3 17 10 64 15 105 9 74 18 117 40 195 32 109 42 308 22 415 -30
158 -55 220 -113 284 -44 49 -51 64 -68 151 -18 94 -49 110 -136 70 -71 -32
-96 -30 -107 10 -5 17 -19 43 -32 59 l-24 28 -42 -46 c-66 -71 -114 -56 -129
41 -7 47 -8 48 -39 45 -27 -2 -35 4 -58 38 -40 60 -76 48 -71 -25 l2 -39 -55
-12 c-30 -7 -71 -17 -90 -23 -61 -19 -89 -14 -121 22 -36 40 -84 120 -131 217
-110 228 -150 374 -164 595 -5 79 -3 94 15 123 12 18 29 36 39 39 9 4 69 38
132 75 63 38 122 72 130 77 8 4 17 28 20 53 8 63 21 75 88 82 31 2 104 10 162
16 396 41 729 63 1158 78 144 5 265 12 269 16 3 3 64 6 134 6 102 0 136 -4
171 -19z"/>
</g>
</svg>
